<?xml version="1.0" encoding="UTF-8"?><svg id="Location" xmlns="http://www.w3.org/2000/svg" width="700.28" height="1000" viewBox="0 0 700.28 1000"><g id="HJM7tb"><path d="M324.59.69c180.17-10.97,339.85,109.96,370.88,288.5,22.06,126.93-35.56,258.3-96.39,366.6-63.79,113.57-145.69,226.51-230.72,325.09-5.67,6.57-11.55,13.09-17.79,19.12-1.03-.27-1.82-.91-2.56-1.64-7.65-7.58-16.08-18.51-23.26-26.94-65.24-76.52-127.77-161.25-181.43-246.33C75.3,617.23-5.61,463.9.31,333.32,8.2,159.03,149.77,11.34,324.59.69Z" fill="#ff2400"/></g><circle cx="350.14" cy="366.9" r="298.85" fill="#fff"/><path d="M337.95,570.82c-.93-.12-3.92-.93-4.16-1.69,0-1.99,1.24-3.8,1.27-5.77.36-19.2.06-39.48-1.29-58.83-.9-12.91-5.99-24.83-6.48-36.19-.11-2.5,1.76-11.58.67-12.31-5.25-.42-10.64-.44-15.9-.31-30.63.7-48.74,3.43-77.39,13.77-5.77,2.08-13.62,6.78-19.55,6.99-16.33.57.47-12.64,4.2-17.49-.56-.52-7.66,5.66-8.84,6.34-7.9,4.56-16.56-.11-24.75-1.86-1.77-2.54,7.75-7.31,9.61-8.75,10.93-8.43,19.23-23.26,27.87-34.19,17.63-22.3,38.95-42.51,60.1-61.44,21.68-19.42,60.62-52.83,90.21-55.26,11.35-.93,27.93.03,38.25,5.05,2.66,1.29,10.5,8.29,12.98,5.77,1.17-1.95.9-4.31.63-6.46-3.08-24.94-31.45-40.15-36.5-66.29-3.75-19.42,6.93-41.11,27.48-44.58,20.92-3.53,35.72,7.24,47.76,23l50.65,25.3c-15.62,1.54-31.11-5.35-46.41-7.56-9.07-1.31-21.4-1.71-30.16,1.14-22.34,7.28,6.03,28.33,13.23,36.47,32.33,36.55,25.87,108.06-15.06,136.25-13.18,9.08-28.11,15.76-40.52,26.07-6.51,13.03-14.24,24.51-17.17,39.08-3.34,16.6-.92,33.38-.29,50.08.37,9.88-.63,20.55.68,30.36.87,6.51,6.45,6.23,7.69,11.36-.62-.17-1.38.66-1.61.66h-13.9c-.95-2.71,1.26-5.3,1.29-8.08.03-2.48-1.14-6.42-1.29-9.06-.91-16.27-.29-32.85-1.31-49.12-.63-10.12-3.12-14.79-6-23.74-2.45-7.61-3.27-16.19-2.48-24.05-2.31-2.95-7.17,1.25-8.97,3.19-16.3,17.55-11.87,54.29-10.97,76.26.34,8.3-1.85,21.47,2.67,28.36,1.96,2.99,6.1,4.07,5.71,7.54-3.78-.35-8.28.47-11.96,0ZM437.68,215.4c-4.23-4.25-9.2,6.68-2.16,6.29,3.38-.19,3.93-4.52,2.16-6.29Z"/></svg>