<?xml version="1.0" encoding="UTF-8"?><svg id="Location" xmlns="http://www.w3.org/2000/svg" width="700.28" height="1000" viewBox="0 0 700.28 1000"><g id="HJM7tb"><path d="M324.59.69c180.17-10.97,339.85,109.96,370.88,288.5,22.06,126.93-35.56,258.3-96.39,366.6-63.79,113.57-145.69,226.51-230.72,325.09-5.67,6.57-11.55,13.09-17.79,19.12-1.03-.27-1.82-.91-2.56-1.64-7.65-7.58-16.08-18.51-23.26-26.94-65.24-76.52-127.77-161.25-181.43-246.33C75.3,617.23-5.61,463.9.31,333.32,8.2,159.03,149.77,11.34,324.59.69Z" fill="#5788cd"/></g><circle cx="350.14" cy="366.9" r="294.73" fill="#fff"/><path d="M410.8,449.76c38.57-.32,90.82-4.63,127.77-.6,2.64.29,4.38.17,6.02,2.71-47.84,73.42-123.36,111.41-211.65,106.23-57.98-3.41-143.68-47.33-175.44-96.66-3.81-5.92-4.75-9.55,3.32-10.51,22.36-2.67,56.47,2.05,80.95,1.92,55.99-.3,112.99-2.62,169.02-3.08Z"/><path d="M236.88,242.67c24.87-3.36,44.32,1.83,65.26,14.6,17.44,10.63,27.49,26.25,50.12,27.13,50.45,1.97,64.22-59.08,125.62-36.02,21.92,8.23,30.59,27.4,48.53,35.73,17.98,8.34,37.18.28,45.39,23.08,8.77,24.37-11.57,31.59-32.54,27.25-39.74-8.24-65.95-70.5-114.07-31.7-28.2,22.74-31.92,39.01-76.19,34.05-33.9-3.8-40.1-21.32-62.51-39.31-52.05-41.79-89.49,43.91-133.87,39.08-17.04-1.85-34.89-20.72-21.62-36.48,7.55-8.97,18.98-6.69,29.02-9.61,34.3-9.95,42.72-43.18,76.85-47.79Z"/><path d="M566.92,418.88c-8.55,9.22-24.61,3.56-34.96.04-25.17-8.55-48.79-32.57-76.03-32.98-27.91-.42-53.79,36.95-87.73,38.8-50.22,2.73-84.49-44.97-127.48-36.13-11.39,2.34-30.67,17.63-43.86,22.85-16.23,6.42-51.97,14.53-63.99-2.61-17.13-24.42,36.57-26.18,47.9-29.26,31.28-8.5,42.21-30.76,81.99-26.83,29.71,2.94,48.22,29.06,75.99,32.87,59.2,8.11,75.82-60.7,145.06-30.88,13.87,5.97,33.1,26.09,43.22,28.75,7.78,2.05,15.81-.11,23.6.99,14.4,2.03,27.38,22.44,16.3,34.39Z"/></svg>