<?xml version="1.0" encoding="UTF-8"?><svg id="Capa_5" xmlns="http://www.w3.org/2000/svg" width="868.38" height="498.51" viewBox="0 0 868.38 498.51"><path d="M163.5,44.83s118.04-63.92,233.29-25.39c3.91,1.31,7.8,2.81,11.67,4.49,68.96,30.03,103.95,107.88,81.68,179.72-11.55,37.28-36.73,81.23-85.58,130.14-5.71,5.72-20.34,17.37-34.22,27.78-10.78,8.08-45.68,29.33-51.06,32.57-47.68,28.77-132.12,68.73-312.2,97.28" fill="none" stroke="#000" stroke-linecap="round" stroke-miterlimit="10" stroke-width="14.17"/><path d="M337.51,83.93s-6.64,14.98-14.41,29.62c-6.28,11.84-31.34,53.57-40.71,69.12-4.2,6.98-7.25,14.61-8.74,22.62-2.11,11.36-1.67,25.6,10.67,32.85.07.04.15.09.22.14,1.32.95,15.29,10.66,34.77,11.83q18.92,1.13,490.99,8.18" fill="none" stroke="#000" stroke-linecap="round" stroke-miterlimit="10" stroke-width="14.17"/><path d="M861.77,267.47l-6.41-16.46s-5.03-3.46-11.32-1.03c0,0-2.13,7.58,11.62,12.66" fill="none" stroke="#000" stroke-miterlimit="10" stroke-width="14.17"/></svg>