<?xml version="1.0" encoding="UTF-8"?><svg id="Location" xmlns="http://www.w3.org/2000/svg" width="700.28" height="1000" viewBox="0 0 700.28 1000"><g id="HJM7tb"><path d="M324.59.69c180.17-10.97,339.85,109.96,370.88,288.5,22.06,126.93-35.56,258.3-96.39,366.6-63.79,113.57-145.69,226.51-230.72,325.09-5.67,6.57-11.55,13.09-17.79,19.12-1.03-.27-1.82-.91-2.56-1.64-7.65-7.58-16.08-18.51-23.26-26.94-65.24-76.52-127.77-161.25-181.43-246.33C75.3,617.23-5.61,463.9.31,333.32,8.2,159.03,149.77,11.34,324.59.69Z" fill="#3e5559"/></g><circle cx="350.14" cy="345.22" r="276.81" fill="#fff"/><path d="M569.13,310.13c3.46-.5,6.55-.81,6.02,3.6-.57,4.81-3.97,13.09-5.15,18.66-5.94,28.07-13.17,55.5-21.25,83.05-5.26,10.35-35.11,19.51-46.32,20.06-12.84.62-26.51-4.48-40.28-4.05s-24.55,6.34-36.89,7.48c-22.65,2.1-39.28-15.33-61.49-15.34-16.2,0-30.2,9.7-45.34,11.62-30.51,3.88-48.27-21.63-79.76-14.57-9.54,2.14-19.43,8.89-29.11,10.01-21.16,2.44-50.01-6.03-69.52-14.38-6.62-2.83-11.38-5.77-14.91-12.35-3.87-7.21-7.76-31.3-8.46-40.13-.28-3.57-1.52-18.34,2.89-18.36,17.78,6.64,38.28,10.25,57.15,12.85,63.27,8.71,141.12,5.85,204.85-1,48.51-5.21,100.31-21.86,147.57-34.96,12.11-3.36,28.18-10.5,40.01-12.19ZM121.4,367.95c-.12,3-.06,9.23,2.38,11.23,2.44,2.01,25.72,6.49,30.57,7.36,86.34,15.46,187.35,12.97,274.61,5.11,30.92-2.78,61.09-9.01,91.03-16.83l1.89-1.62-1.64-9.98c-26.28,12.52-57.78,17.7-86.68,21.18-54.93,6.61-110.82,6.72-165.8,3.72-49.16-2.69-98.84-6.85-146.36-20.16Z"/><path d="M554.01,448.56c-4.15,21.66-22.43,33.77-43.27,36.73-22.92,3.26-30.44-3.3-50.1-5.58-17.39-2.02-31.19,9.26-48.27,9.26-18.1,0-36.88-12.11-54.48-13.19-21.85-1.34-36.87,12.79-60.48,10.69-18.07-1.61-46.2-16.32-61.37-13.92-12.87,2.04-24,9.63-39.2,9.1-16.44-.57-37.44-14.68-47.62-27.15-1.94-2.38-8.87-11.36-5.37-13.7s33.43,8.32,40.29,9.6c25.47,4.74,45.57-8.74,69.38-7.75,24.63,1.02,44.09,17.69,70.36,12.25,7.6-1.58,14.96-5.37,22.66-6.97,25.33-5.28,40.52,10.97,64.6,12.53,24.25,1.57,39.72-14.12,65.65-8.75,7.76,1.61,15.97,6.18,23.6,7.22,18.63,2.53,35.15-9.63,53.62-10.36Z"/></svg>