<?xml version="1.0" encoding="UTF-8"?><svg id="Location" xmlns="http://www.w3.org/2000/svg" width="700.71" height="1000.61" viewBox="0 0 700.71 1000.61"><g id="HJM7tb"><path d="M324.79.69c180.28-10.98,340.06,110.02,371.1,288.68,22.07,127.01-35.58,258.45-96.44,366.83-63.83,113.64-145.78,226.65-230.86,325.29-5.67,6.57-11.56,13.1-17.8,19.13-1.03-.27-1.82-.91-2.56-1.64-7.65-7.59-16.09-18.53-23.27-26.95-65.28-76.57-127.85-161.35-181.55-246.48C75.35,617.61-5.61,464.18.31,333.52,8.2,159.13,149.86,11.34,324.79.69Z" fill="#e2882d"/></g><circle cx="348.41" cy="363.22" r="294.91" fill="#fff"/><path d="M278.33,458.62c-3.48-.58-9.66-4.99-11.88-7.83-8.89-11.39-3.29-37.61-2.74-51.64,1.02-25.84-1.6-56.44,1.54-81.36,2.81-22.28,31.34-34.21,51.1-35.2,16.95-.85,37.38-.59,54.42,0,29.11,1.01,59.38,6.27,68.19,38.5-2.17,34.58,2.6,73.89-1.37,107.89-1.92,16.41-4.91,26.51-22.17,30.15-1.73.37-4.93-.47-5.51,1.29-.35,7.9.12,15.82-.07,23.72-.4,16.79,1.49,60.14-6.54,72.96-10.05,16.05-41.15,14.21-45.51-6.7-2.44-11.72-1.76-36.99-1.69-50.01.07-12.66,2.41-25.98,1.83-38.62-.03-.56-.26-1.67-.9-1.81l-12.74-.69c-2,3.59-.4,7.02-.36,10.54.16,17.34.23,37.17-.72,54.39-1.46,26.49-6.01,43.98-36.95,40.37-15.03-1.76-17.86-14.47-18.75-27.46-1.47-21.23-.79-49.16-.04-70.69.09-2.51,1.21-5.1.71-7.79-3.03-.35-6.96.48-9.85,0Z"/><path d="M353.27,183.56c13.08-1.36,29.75,7.64,37.14,18.24,21.39,30.66-3.19,72.14-40.04,69.26-50.5-3.95-54.72-81.49,2.9-87.5Z"/></svg>