<?xml version="1.0" encoding="UTF-8"?><svg id="Location" xmlns="http://www.w3.org/2000/svg" width="700.28" height="1000" viewBox="0 0 700.28 1000"><g id="HJM7tb"><path d="M324.59.69c180.17-10.97,339.85,109.96,370.88,288.5,22.06,126.93-35.56,258.3-96.39,366.6-63.79,113.57-145.69,226.51-230.72,325.09-5.67,6.57-11.55,13.09-17.79,19.12-1.03-.27-1.82-.91-2.56-1.64-7.65-7.58-16.08-18.51-23.26-26.94-65.24-76.52-127.77-161.25-181.43-246.33C75.3,617.23-5.61,463.9.31,333.32,8.2,159.03,149.77,11.34,324.59.69Z" fill="#7a6652"/></g><circle cx="350.14" cy="354.96" r="289.11" fill="#fff"/><path d="M456.57,486.72c20.38,25.99-28.86,37.47-22.37,5.82l5.88-7.55c-22.1-1.44-44-6.87-65.49-12.13-.04,3.44,2.83,6.2,2.88,9.95.28,23.21-38.8,20.26-31.1-4.38,1.87-5.98,5.9-7.46,10.46-10.78l-56.37-19.95c6.45,9.5,1.44,22.95-10.18,24.93-22.49,3.83-27.2-28.05-5.44-31.44-22.46-10.96-43.3-24.07-63.23-39.1-3.56-2.69-16.04-14.4-18.93-14.98-2.25-.45-15.94,10.92-19.75,12,.34,12.44-7.11,20.55-19.94,19.09-19.61-2.23-18.25-35.4,6-32.01,2.5.35,4.63,2.11,6.36,2.37,2.28.34,23.52-12.71,27.01-15.12,17.52-12.1,36.73-29.19,53.01-43.26,39.63-34.23,77.53-70.69,117.52-104.49,4.82-4.08,17.67-15.53,23.38-15.71,19.57-.61,56.32,31.89,69.4,46.03,43.88,47.44,60.71,117.5,73.87,179.37,1.94,9.13,2.64,21.38,4.97,29.74.52,1.85,2.23,1.83,2.97,3.05,10.4,17.22-14.7,27.4-19.39,8.99-6.44,2.3-13.57,5.1-20.18,6.71-3.2.78-10.86,2.85-13.63,2.85h-37.73ZM373.32,243.01l29.79,15.48,18.75-19.38-25.58-16c-2.29.07-19.38,15.13-22.05,17.79-.72.71-1.24.77-.92,2.1ZM426.77,242.22l-17.88,18.58c.01,1.42,21.69,9.8,24.68,10.86,5.09,1.8,16.5,6.18,21.26,6.59,2.35.2,4.4-2.17,5.15-4.32-10.27-11.35-19.6-24.09-33.21-31.71ZM397.6,264.71l-29.94-17.34-23.85,19.47-.84,2.17,32.39,19.83,22.24-24.14ZM450.5,284.66c-16.54-3.02-32.06-9.63-47.29-16.47l-22.94,22.96c.02,2.51,40.71,18.19,46.26,19.34l23.97-25.84ZM368.97,294.21l-31.66-21.47-24.71,21.44,34.28,22.55,1.75-.8c4.91-6.6,15.07-13.15,19.5-19.55.5-.73,1.18-.91.84-2.17ZM470.27,286.57l-12.44.64-22.93,26.05c17.12,5.15,35.08,8.39,52.92,8.27,1.37-1.04.46-1,.13-1.89-4.3-11.77-11.71-22.17-17.68-33.07ZM420.14,316.75c-15.81-4.62-31.2-10.76-45.54-18.85l-21.23,22.71,41.94,22.01,24.84-25.87ZM306.27,299.48l-24,22.89,33.24,22.85,24.83-21.98-34.07-23.76ZM491.16,327.25c-21.3,1.09-41.42-1.89-61.8-7.71-6.57,7.8-16.51,15.48-22.67,23.21-1.03,1.3-2.23,2.51-2.15,4.34,22.76,8.72,46.07,17.06,70.48,19.82l21.32-23.89-5.18-15.76ZM388.92,348.84l-42.08-21.68-24.68,22.1,41.92,23.71,24.84-24.13ZM275.93,328.13l-23.16,20.25,31.27,21.77,24.21-19.15-29.16-22c-.95-.62-1.98-1.18-3.17-.87ZM499.06,348.83c-1.64-.4-1.67.6-2.44,1.45-4.09,4.48-8.84,10.96-12.73,15.89-.73.93-1.95,1.06-.45,2.18l21.69,1.28-6.08-20.81ZM277.05,374.86l-30.91-21.63-15.04,10.35.55,1.79,29.58,20.62c.74.34,1.26,0,1.91-.29.81-.35,14.41-10.12,13.92-10.85ZM397.28,353.34l-24.82,23.67c20.87,10.46,42.78,20.23,65.25,26.32,10.82-8.23,20.41-18.42,30.11-28.05-.72-1.21-1.81-1.07-2.88-1.44-12.87-4.35-27.73-6.63-41.12-10.91-8.95-2.86-17.57-6.81-26.54-9.59ZM314.77,355.12l-24.71,18.44c-.3,1.19.73,1.5,1.44,2.02,4.45,3.31,11.24,6.93,16.19,9.82,3.75,2.19,24.4,13.97,26.84,13.59l22.29-19.38-42.05-24.5ZM255.36,389.6l-30.07-20.71-12.4,9.85,27.66,22.59c1.21.27,11.99-7.69,13.5-9.17.84-.82,1.65-1.12,1.31-2.57ZM474.53,376.75l-30.08,28.88c-.02,2.47,43.03,11.92,47.92,11.57l17.79-25.67c.8-2.38-2.06-13.5-3.82-14.02-10.61,2.37-21.18-.67-31.8-.76ZM329.08,403.47l-45.67-24.11-15.89,10.66,48.14,25.32,13.43-11.88ZM428.82,411.28c-21.69-6.45-41.93-16.84-62.07-26.92l-2.59.85-19.47,17.83c-.33,1.29,1.13,1.85,1.99,2.34,4.43,2.52,12.66,5.39,17.72,7.43,14.38,5.76,29.27,10.42,44.07,15.01,3.48-.05,17.07-13.28,20.34-16.53ZM307.4,420.82l-44.85-25.9c-3.17-.52-12.71,8.63-15.84,10.71l46.6,26.31c1.02.35,1.84.16,2.79-.28.61-.29,9.78-7.9,10.45-8.66s1.12-.97.84-2.18ZM518.15,418.21l-5.64-19.96-12.58,19.96h18.21ZM401.93,432.96l-62.09-24.3c-2.79-.15-11.1,9-14.21,10.85,20.01,10.17,41.62,17.56,62.96,24.71.76.15,1.37-.1,2.04-.41.59-.27,8.99-7.31,9.98-8.27.85-.83,1.64-1.13,1.32-2.58ZM434.63,413.98l-17.94,15.93c18.03,6.53,37.03,10.08,55.88,13.47,2.77-.36,10.68-13.52,13.47-16.07-.61-.85-1.13-1.12-2.15-1.3-4.61-.8-9.71-.99-14.49-1.99-11.82-2.47-23.29-6.42-34.77-10.04ZM380.25,450.3l-62.18-24.12-14.13,9.39c-.42,2.25.33,1.33,1.22,1.79,19.17,9.86,43.04,15.53,63.48,22.47,1.77.07,8.67-5.38,10.29-6.95.85-.83,1.64-1.13,1.32-2.58ZM519.79,426.1l-25.91,1.23c-1.68,1.55-14.23,16.68-13.02,17.76l43.35,2.6-4.42-21.59ZM467.84,449.43c-19.69-2.22-38.81-7.43-57.7-13.07-2.88.04-10.56,7.94-13.39,10.03,19.56,7.68,40.74,11.39,61.32,15.84,1.75-.03,10.64-12.03,9.77-12.8ZM524.99,452.99l-23.79.81-25.07-2.66c-2.94.46-8.83,9.53-10.89,12.15,19.18,3.3,39.07,4.8,58.47,2.52.8-.09,3.02-.5,3.17-1.33l-1.9-11.49ZM454.83,467.65c-22.05-3.6-44.19-7.06-65.5-13.94l-10.81,7.44c-.39,1.86.77,1.15,1.92,1.52,16.41,5.33,47.16,10.31,64.43,11.04,6.18.26,6.93-.87,9.96-6.05ZM494.73,471.98c-11.24.15-22.41-1.43-33.4-3.51l-4.74,4.8c.82,1.26,1.66,1.2,2.98,1.34,9.24,1.01,19.25-1.23,28.55-1.02l6.61-1.62Z"/></svg>