<?xml version="1.0" encoding="UTF-8"?><svg id="Location" xmlns="http://www.w3.org/2000/svg" width="700.71" height="1000.61" viewBox="0 0 700.71 1000.61"><g id="HJM7tb"><path d="M324.79.69c180.28-10.98,340.06,110.02,371.1,288.68,22.07,127.01-35.58,258.45-96.44,366.83-63.83,113.64-145.78,226.65-230.86,325.29-5.67,6.57-11.56,13.1-17.8,19.13-1.03-.27-1.82-.91-2.56-1.64-7.65-7.59-16.09-18.53-23.27-26.95-65.28-76.57-127.85-161.35-181.55-246.48C75.35,617.61-5.61,464.18.31,333.52,8.2,159.13,149.86,11.34,324.79.69Z" fill="#207f53"/></g><circle cx="350.35" cy="367.12" r="294.91" fill="#fff"/><path d="M214.46,302.95c.62-6.31,4.19-11.21,7.63-16.28-2.6-.34-5.14-.87-7.62-1.75-3.68-1.31-11.04-4.52-14.37-6.43-.81-.46-1.64-.71-1.63-1.87-.02-3.68,14.45-4.8,16.66-7.63-1.67-.79-2.72-2.91-3.77-3.82-.88-.76-2.45-.81-3.24-1.69-1.06-1.18.47-2.56-.21-3.86-.42-.8-1.74-1.02-2.24-1.62-1.36-1.64-2.63-3.76-4.04-5.32-1.92-2.11-4.37-3.55-5.88-5.89,3.1-4.38,16.78,4.64,17.96.61.9-3.09-3.38-5.26-3.46-5.6-.37-1.58.9-3.7.8-5.42-.04-.76-2.51-7.99-2.87-8.28-1.36-1.1-3.47-.2-2.74-3.84,2.68-.09,7.28-.73,9.73-1.72,2.01-.81,2.87-3.13,5.52-2.45-1.03,4.08,5.19,5.07,6.1,8.12,1.76,5.89-3.06,4.22-3.2,6.09.45.97,3.54,6.31,4.73,5.21-.33-2.28,2.18-2.98,2.09-5.12-.07-1.61-1.61-5.54-2-7.79-.47-2.72-.44-4.24-1.15-7.2-1-4.16,3.95-2.53,6.77-1.89,3.43.78,9.28,5.11,10.67-.18.78-2.99-2.11-3.59,3.73-5.21l-3.8-3.12c-1.6,3.72-1.94,6.76-6.26,8.36-1.71.01-1.85-2.54-3.1-3.17-4.21-2.11-11.77,3.7-16.19,2.33-.62-.19-1.32-.77-1.05-1.5,1.98-3.14,7.71-13.03,10.96-14.03,2.42-.75,5.21.22,7.57-1.09l.1-3.38c3.81-.72,3.02,2.46,5.58,4.47.83.65,8.75,4.29,9.32,4.29,1.74,0,5.95-2.83,5.79-5.09.1-2.02-2.72-1.41-4.06-1.93-7.46-2.9-11.73-11.28-11.78-19.07,2.93-.76,3.52,1.68,5.19,2.78,4.61,3.03,8.64.22,13,.83,4.75.67,6.81,6.23,11.62,4.7-1.1-3.93-5-5.95-6.58-9.7-.56-1.33-2.31-8.36-1.73-9.01l6.23,3.46v-4.16c1.61-1.58,13.85,6.75,13.52,10.4,3.37-2.68.36-4.64.33-7.25-.06-3.98,2.53-9.38,2.8-13.54,6.56-.25,6.17,15.26,11.02,16.32,1.13.25,4.62-1.92,4.22-2.45-1.59-.84-5.56-.13-6.14-1.83-1.41-4.15,2.38-6.17,2.44-7.54.04-.86-1.98-3.46-1.15-5.19,4.96.38,8.96,4.11,14.56,3.47-1.64,5.12.1,3.29,1.98,5.99,3.19,4.58-1,9.58,8.11,6.52,1.49-.5,3.06-2.01,4.15-2.11,4.82-.46,2.21,2.73,2.47,3.77.32,1.28,4.67,1.15,4.11,4.19-.09.5-4.63,1.54-4.18,3.48,4.64,4.36,6.64-1.13,11.09-1.03-2.1,3.62-3.31,14.51,2.43,14.98,4.36.36.24-11.97,3.17-14.93,3.36-.68,4.56,3.43,8.24,2.74-.95,2.1,2.33,12.24,4.52,11.76,2.11-2.02,1.11-6.32,1.86-8.55.34-1,1.7-1.14,2.26-1.9,2.32-3.09-.69-7.73,3.49-10.39,2.4-1.53,7.49,1.33,9.64,2.94,1.58,1.18,1.08,2.79,4.6,1.96l.11-6.14c6.47-2.8,9.71-12.25,17.91-11.89-.9,2.61,1.66,21.46,3.12,21.48,1.96-1.98.74-5.29,1.1-7.9.39-2.86,5.56-12.93,7.5-15.23,1.53-1.81,3.96,1.75,4.61,3,1.42,2.72,2.62,11.15,2.41,14.24-.16,2.26-2.7,6.53-1.8,7.99l18,6.19,3.86-1.69c-.02-.72-5.85-2.09-4.54-4.52.86-1.6,8.55-5.31,10.53-5.5,3.71-.35,12.73,4.4,12.02,8.95-.19.23-4.08.52-5.01.89-1.96.79-5.24,7.2-4.18,9.35,2.67,5.39,6.86,1.36,10.31.93,9.5-1.17,20.37,9.14,20.38,18.66-2.46,1.14-9.49-4.84-10.37-1.66.11,6.11,6.07,5.28,8.98,8.95,1.45,1.83,2.45,6.97,3.83,7.27.84.18,6.66-8.61,8.7-9.31,2.23-1.65,4.76-2.17,7.5-1.7,1.35,4.41-1.44,8.69-2.38,13.07-.75,3.52-.86,7.17-1.76,10.67l2.52,1.83c2.2,4.12-10.21,6.78-7.93,13.43.89,2.59,8.93.98,11,.44-.47,5.16-6.28,6.86-7.62,11.77,3.71-.85,4.53,2.06,7.14,3.62,2.85,1.7,5.66,1.71,8.43,2.67.92.32,1.88.34,1.77,1.69-.28,1.31-6.61,4.35-8.32,3.83-.75.76,8.51,15.3,3.16,20.16-1.31,1.19-3.32-1.2-5.24-.36-.91-.55-3.72-8.63-5.54-7.32l-.62,4.08c9.29,2.58,5.55,16.13.98,21.42-2.71.37-2.04-6.58-4.51-7.48-.5,3.95-1.38,8.3-4.6,11.05-2.86-.71-3.26-3.81-3.74-6.2-.97-.68-5.74,2.33-5.49,3.72,3.83,3.36,5.95,6.86,5.49,12.22-3.48.67-11.07-6.55-13.05-5.41-3.13,3.81-2.89,16.78-7.53,18.48-.6.22-1.41.41-1.67-.33-5.34-8.47-7.33-17.19-2.01-26.25-11.52-3.48-5.1,13.93-13.83,17.4-2.32.59-2.8-6.63-3.85-8.04-6.14,6.06-12.49,9.8-20.96,11.62-12.63,2.72-18.46,2.83-28.93,11.97-9.8,8.55-8.4,21.64-16.99,30.85-8.53,9.15-19.96,16.56-20.14,31.21-.29,22.85,30.33,15.34,42.64,25.29,2.34,1.89,5.53,5.12,5.21,8.3-1.56,1.56-10.01-5.34-12-6.36-8.71-4.51-13.04-2.75-21.46-4.19-2.09-.36-4.22-2.44-6.05-1.57,1.97,1.73,2.4,4.55,3.86,6.54,5.07,6.94,38.02,16.38,48.35,22.37,25.64,14.85,48.34,50.46,55.59,78.9,1.52,5.96,2.76,13.43-5.96,12.07-2.31-13.2-1.07-24.98-7.86-37.07-2.45-4.37-4.06.14-4.48,3.22-.77,5.66-.24,14.18,1.89,19.48.94,2.35,3.47,5.16,3.98,7.13,2.02,7.73-8.66,12.13-10.62,1.59-1.06-5.7-1.79-25.5-.31-30.49.94-3.16,4.61-5.69,4.04-9.22-.96-6-14.71-24.77-20.87-25.65-1.48-.21-.89.18-1.03,1.05-1.39,8.49-1.9,17-2.98,25.46-.33,2.57-2.53,6.71-2.53,7.82,0,1.57,3.95,8,4.83,10.37,2.65,7.14,3.96,15.02,6.87,22.13-11.09,7.08-9.99-9.74-12.27-16.07-.4-1.11.37-1.86-1.56-1.52l2.1,18.25c-4.23,2.76-5.73.75-7.15-3.16-1.95-5.35-2.38-13.18-1.8-18.83.3-2.94,2.62-8.7,2.33-10.93-.31-2.4-4.17-6.54-5.46-8.99-3.64-6.89-5.88-13.63-12.2-18.99-3.85-3.27-9.13-3.84-13.51-7.29-4.78-3.77-6.61-8.47-10.17-12.7-.86-1.02-5.05-5.64-6.13-4.61-1.23,13.24-6.62,25.17-10.37,37.72.15,3.65,8.32,14.73,10.48,18.66,2.72,4.95,12.2,21.85,11.65,26.4-.77,6.38-5.47,1.13-7.35-1.58-6.95-10.01-9.38-26.38-17.58-36.14.32,4.78.23,10.19.7,14.89.83,8.44,3.33,17.88,3.49,26.33.16,8.19-4.05,8.95-6.49,1.62-4.27-12.86-2.07-31.83-1.84-45.24.23-13.24-5.48-24.82-1.21-37.25,1.65-4.79,2.31-8.58,3.72-12.92.62-1.9,2.5-3.65,2.86-5.49,1.24-6.36-6.12-12.06-9.54-16.49-2.27-2.94-4.86-7.95-7.06-10.27-.48-.51-.62-1.39-1.62-1.14-1.08.23-7.19,13.45-8.54,15.73-3.6,6.08-9.05,12.08-11.73,18.77-2.74,6.83-2.34,14.56-4.71,20.94-1.73,4.68-6.27,9.28-8.23,13.95-1.33,3.17-6.64,17.37-7.08,20.01-.57,3.38,3.48,16.25,3.88,21.17.45,5.55.09,14.51-.73,20.05-.85,5.78-6.2,3.09-6.2-2.04v-29.46c-3.41.9-4.15,7.9-4.63,10.96-.94,5.95.02,9.36-.23,15.03-.05,1.16-1.08,8.34-1.47,8.58-8.03,1.27-3.73-8.13-4.08-12.02-.14-1.53-2.07-2.45-2.09-4.86-.06-6.3,5.82-16.32,5.56-23.24-3.5,3.49-5.64,9.24-7.24,13.89-1.71,4.94-2.6,12.48-4.69,16.8-1.6,3.3-4.59,3.12-4.25-.76.91-10.4,9.43-37.82,15.34-46.38,1.72-2.49,4.17-4.56,5.99-7.18,2.33-3.35,13.66-22.79,14.5-25.71.75-2.62.18-5,.76-7.56.69-3.01,10.03-15.75,0-12.47-1.42.47-15.6,8.41-16.92,9.42-18.57,14.28-35.97,34.97-42.32,58.2-3.09,11.3-4.47,22.9-7.45,34.15-.74,2.79.65,4.34-1.87,7.14-1.84,2.05-4.27,3.28-4.6-.37-.33-3.72,3.81-12.17,4.69-16.86.86-4.54.46-8.02,1-12.18,1.19-9.23,5.58-17.55,8.92-26.08-13.39,7.12-17.68,21.43-24.83,33.74-1.94,3.34-12.99,21.67-14.85,22.58-.85.41-1.64.65-2.59.52-.08-1.19-.07-2.34.31-3.49,1.62-4.9,9.04-12.77,12.03-17.78,7.93-13.28,11.74-26.86,24.07-37.63,3.51-3.07,9.46-5.97,12.39-9.1,8.15-8.72,13.29-19.68,23.28-28.71,12.76-11.54,28.16-15.99,40.21-27.73.35-1.63-1.4-1.16-2.25-.86-3,1.03-7.23,3.93-10.72,5.22-7.14,2.65-14.84,3.22-21.22,7.9-7.34,5.38-9.88,13.35-14.68,20.68-1.41-12.85,8.38-23.29,19.05-28.78,10-5.15,25.97-7.29,34.46-14.41,3.18-2.67,2.29-5.4,3.16-8.28,4.62-15.37,24.57-28.61,31.59-43.28,8.98-18.76-17.87-19.15-26.94-26.89-4.82-4.12-9.57-16.37-13.96-22.09-5.14-6.7-13.77-7.34-21.36-10.53-2-.84-8.56-4.89-9.49-5.05-1-.17-2.13,1.14-3.38,1.24-1.73.14-3.42-1.41-4.7-1.21-1.38.22-10.17,6.86-11.9,6.75-.71-.53-.87-.76-.96-1.65-.06-.56-.14-4.45-.1-4.89.44-4.62,3.69-7.16-2.41-10.09l-1.7,5.92c2.92,3.48,4.49,10.54,4.06,15.14-.23,2.45-6.53,18.82-7.91,19.14-1.93.46-2.17-4.03-3.46-4.85l-2.4,5.22c-1.16.95-1.75-.42-2.39-1.12-3.98-4.38-5.1-13.56-6.06-19.24-4.6-.91-8.93-2.87-12.71-5.66-4.12-3.04-4.57-7.18-11.44-4.85.23-3.25-.32-6.85,0-10.05ZM296.27,186.82c2.06.61,11.05-1.05,10.4-3.8l-4.51-3.12-5.89,6.91ZM283.1,182.67c.41,3.09-2.9,3.32-4.18,5.19-.43.63-1.14.74,0,1.41,1.5.88,5.59,1.44,6.65-.34l-2.47-6.25ZM389.16,253.38v-1.03s-1.74-1.74-1.74-1.74l-1.71,1.04,2.43,1.72h1.02ZM382.76,255.63l-4.28-.22c-1.74,2.24.95,2.13,1.68,3.13,1.22,1.67.98,4.39,4.14,3.85l-1.55-6.76ZM398.18,267.94c.35,3.52-2.85,8.62-.76,11.49.23.32,2.34,1.66,2.49,1.66,1.45-.03.55-1.31.44-1.8-.37-1.74-1.24-3.48-1.35-5.46-.1-1.77,1.91-4.74-.82-5.89ZM384.31,269.33c-2.78-.3-3.65,4.3-1.37,2.44.32-.26,1.47-2.35,1.37-2.44ZM295.06,278.15c2.54,2.75,4.05-2.94-.87-2.58-.32.33.45,2.13.87,2.58ZM310.12,281.11c1.06-.99.5-4.78-1.03-4.84-1.93-.07-.71,6.46,1.03,4.84ZM368.37,287.35l2.02-7.17c-6.84-8.19-9.29.26-16.4,1.46-3.99.67-8.64,0-12.65-.22-2.16,3.94-7.25,8.99-8.17,13.37-1.02,4.89,1.84,9.83-.15,14.75,9.43-13.08,26.09-12.39,38.75-20.51l6.3-5.13c-3.99-.71-5.85,3.98-9.7,3.46ZM335.78,279.73c-6.82.04-4.57,1.81-5.68,5.74-1.34,4.74-4.67-.76-5.84-1.5-3.66-2.34-6.47-1.82-8.58,1.99l11.3,4.06,8.81-10.29ZM302.51,283.19l-1.75,3.46-3.44-3.32c-3.02-.26-2.89,6.36-2.3,8.38.78,2.67,9.82,7.8,11.87,10.16,2.23,2.57-2.62,2.79-4.71,2.85-1.6.05-5.13-.77-5.53-.69-2.55.5.35,3.37.66,4.17.35.91-.37,1.9-.32,1.99.37.51,9.7,3.46,11.77,4.53,4.05,2.1,5.07,3.44,8.09,6.44,3.21,3.19,3.59-4.24,3.71-6.39.16-2.97-.57-17.42-1.56-19.3-1.72-3.27-12.35-9.47-15.47-12.27h-1.02ZM385.69,285.96c-2.06-.52-.99,1.25-2.08,2.39-13.25,13.82-37.22,13.76-50.26,30.18-13.56,17.08,15.81,30.67,29.33,33.08,26.24,4.67,22.01-10.42,30.05-27.77,2.55-5.51,7.32-10.18,9.59-16.05-2.43-2.95-8.91,1.25-10.75-1.72-1.28-2.06,1.09-4.19,1.05-4.52-.08-.8-3.23-.5-1.74-3.13,1.25-2.2,6.37-2.39,8.61-3.52.2-7.83-4.56-3.3-8.62-3.38-3.08-.06-5.2-2.54-5.18-5.56ZM283.09,290.81c.43-.46-.32-2.75-1.04-2.76-2.07-.02-.19,4.08,1.04,2.76ZM238.72,317.85c-1.08-6.16,2.8-17.21,9.53-18.56,2.48-.5,4.95.76,6.01.51,4.26-1.02-2.77-4.05-6.15-3.44-3.03.55-3.98,5.7-9.01,5.58-1.65-.04-2.61-1.4-4.18-.04-4.79,4.17-.6,6.42,1.17,9.91.93,1.84.96,4.82,2.62,6.03ZM286.56,307.45c.36-.34-3.88-8.59-5.19-8.31-1.82,1.61-.97,4.65-.96,6.84l6.15,1.47ZM418.97,311.61c1.02-1.18-4.68-6.98-5.89-8.12l-7.99,3.28c1.66,3.62-1.06,8.12-2.07,11.77.98.74,12.89-7.65,15.95-6.93ZM246.02,315.78c-2.77.57,1.15,4.16,2.07,4.84,2.63-1.24-.65-5.13-2.07-4.84ZM430.06,316.47l-5.9-.69-.33,1.37c.28.3,5.98.9,6.24-.68ZM396.79,340.73c12.86-2.2,28.92,1.57,36.62-11.62l-1.96-9.88c-6.85,2.98-14.38,1.27-21.15,2.07-5.87.7-13.51,13.57-13.5,19.42ZM413.23,478.19c-1.73-2.04-18.03-9.9-21.52-11.41-5.81-2.5-11.71-4.41-17.79-6.12,3.1,15.76,16.44,17.63,28.19,24.15,3.06,1.69,10.01,7.44,11.97,8.14.71.25,1.36.41,2.12.3.54-.56-1.99-13.9-2.97-15.05ZM356.59,463.44l-.73,5.17.38,6.6c1.35-2.11,1.45-6.84,1.49-9.48.01-.68-.08-2.42-1.14-2.29ZM413.42,514.04c.46-4.35,1.39-6.86-1.38-10.75-1.82-2.55-13.51-11.48-16.72-13.79-1.47-1.06-2.79-2.71-4.78-2.49,5.63,7.63,13.34,12.36,18.59,20.57.41.63,3.1,7.87,4.28,6.46Z"/><path d="M353.8,159.1c.48,3.44-.37,6.02-1.29,9.21.95,2.62,5.65,3.39,6.87,5.15,1.09,1.58,2.09,7.76,1.05,9.25-6.15,2.63-10.28-1.25-14.73-4.75l-11.28,1.21c-1.97-7.46,3.14-8.78,6.92-12.77.66-.7.58-2.22,1.37-2.79s2.32-.35,3.28-.88c2.44-1.36,4.52-3.5,7.81-3.62Z"/><path d="M435.61,163.95c.14,8.47-.43,15.97-8.78,19.98-7.92,3.8-12.03-3.06-6.45-9.22l15.23-10.76Z"/><path d="M339.94,159.8c.56,3.27-2.71,2.93-4.65,4-1.2.67-1.93,1.68-3.29,2.26-4.65,1.99-9.29,2.14-14.25,2.74-.76-13.95,12.6-12.89,22.18-9Z"/><path d="M296.27,186.82l5.89-6.91,4.51,3.12c.65,2.74-8.34,4.4-10.4,3.8Z" fill="#fff"/><path d="M283.1,182.67l2.47,6.25c-1.06,1.78-5.15,1.22-6.65.34-1.14-.67-.43-.77,0-1.41,1.28-1.87,4.59-2.09,4.18-5.19Z" fill="#fff"/></svg>